<svg xmlns="http://www.w3.org/2000/svg" width="512.34698" height="181.91499" viewBox="0 0 135.55847 48.131677"><g clip-path="url(#clipPath5312)" transform="matrix(.4725 0 0 -.4725 -103.757 179.074)"><path fill="#034ea2" d="M271.469 348.618h-15.088v-5.617H279.705c.643 0 1.28-.272 1.703-.774.48-.425.691-1.088.691-1.732v-1.908c0-.662-.211-1.307-.691-1.749a2.237 2.237 0 0 0-1.703-.77h-19.61a48.22 48.22 0 0 1 18.389-14.499c.587-.599.961-1.3 1.07-2.067.151-.82-.053-1.586-.431-2.292a3.65 3.65 0 0 0-1.807-1.417c-.742-.22-1.54-.22-2.284.116-9.25 2.443-17.645 7.407-24.345 14.394-6.86-7.045-15.414-12.007-24.821-14.394-.702-.336-1.488-.336-2.236-.116a3.673 3.673 0 0 0-1.811 1.417 3.532 3.532 0 0 0-.477 2.292c.102.766.477 1.468 1.124 2.067a48.174 48.174 0 0 1 18.389 14.5h-18.819c-.632 0-1.275.27-1.703.77a2.398 2.398 0 0 0-.742 1.748v1.908c0 .644.267 1.307.742 1.732a2.256 2.256 0 0 0 1.703.774H245.32v5.617H223.847c-.749 0-1.493.318-2.028.871-.477.55-.793 1.26-.793 2.02v10.188-3.056 5.51c0 .711.211 1.312.684 1.796a2.465 2.465 0 0 0 1.757.765H268.871v4.204H223.467c-.633 0-1.272.268-1.757.758a2.595 2.595 0 0 0-.684 1.755v1.903c0 .641.264 1.365.684 1.795.485.49 1.124.764 1.757.764l11.586-.053h42.054c.74 0 1.429-.27 1.964-.82.531-.553.8-1.255.8-2.015v-10.202 3.062-5.454c0-.656-.215-1.31-.693-1.799-.483-.43-1.06-.71-1.701-.71l-2.338-.043-14.568-.067h-28.489v-1.149 1.15-4.252H277.477c.641 0 1.218-.22 1.701-.71.478-.44.693-1.149.693-1.794v-1.912c0-.653-.215-1.314-.693-1.799-.483-.438-1.06-.706-1.701-.706zM295.932 377.637h26.71c.653 0 1.306-.227 1.795-.714.438-.488.71-1.087.71-1.746v-1.894c0-.709-.272-1.313-.71-1.798a2.554 2.554 0 0 0-1.794-.772h-20.35v-6.038 2.947-24.539h17.85c3.268 0 6.198 1.62 7.997 4.291v10.007h-13.927c-.646 0-1.253.281-1.687.77a2.218 2.218 0 0 0-.758 1.687v1.857c0 .644.269 1.235.758 1.735.434.435 1.04.652 1.687.652h13.927v12.353c0 .653.262 1.303.764 1.801.435.423 1.082.755 1.734.755h4.896c.655 0 1.313-.332 1.79-.755.439-.498.709-1.083.709-1.8V317.23c0-.645-.27-1.307-.708-1.747-.478-.483-1.136-.7-1.791-.7h-4.896c-.652 0-1.3.217-1.734.7-.502.497-.764 1.102-.764 1.747v21.488c-1.69-1.685-4.075-2.662-6.474-2.606H293.92c-.766 0-1.527.27-2.016.81-.547.548-.811 1.253-.811 2.017v28.683-2.947 10.13c0 .756.264 1.466.81 2.012.49.545 1.25.82 2.017.82zm49.665 1.354h4.905c.65 0 1.304-.332 1.786-.755.438-.498.722-1.083.722-1.8V317.23c0-.645-.284-1.307-.722-1.747-.482-.483-1.136-.7-1.786-.7h-4.905c-.65 0-1.305.217-1.735.7-.49.497-.766 1.102-.766 1.747v59.205c0 .653.277 1.303.766 1.801.43.423 1.085.755 1.735.755M431.346 364.041a2.388 2.388 0 0 1-1.703.733h-5.641v10.838c0 .781-.332 1.503-.826 2.055a3.411 3.411 0 0 1-2.1.896h-5.693c-.713-.059-1.484-.334-2.041-.896-.557-.552-.834-1.274-.834-2.055v-13.629l-.047-6.605a6.245 6.245 0 0 0-3.045-3.276c-1.381-.679-2.974-.846-4.418-.396v21.966c.047 1.242-.233 2.858-2.138 2.997h-34.324a2.423 2.423 0 0 1-1.715-.722c-.501-.503-.77-1.113-.77-1.776v-1.894c0-.665.269-1.277.77-1.787.446-.427 1.052-.654 1.715-.654h24.96V351.48h-7.4v9.564c0 .781-.332 1.496-.826 2.066-.561.553-1.321.833-2.096.833h-5.691c-.776 0-1.491-.281-1.986-.833-.61-.57-.887-1.285-.887-2.066v-9.564h-10.17c-.71 0-1.32-.224-1.76-.709-.446-.454-.78-1.068-.78-1.737v-1.892c0-.663.334-1.274.78-1.772.44-.452 1.05-.676 1.76-.676h37.683c.494 0 .996.065 1.44.176 3.156.27 6.24 1.221 8.945 2.831v-9.836c0-.778.277-1.502.834-2.051.557-.569 1.328-.906 2.04-.906h5.696c.768 0 1.485.337 2.098.906.494.549.826 1.273.826 2.051v20.058h5.64c.664 0 1.26.288 1.704.736.45.444.789 1.112.789 1.779v1.84c0 .724-.338 1.271-.79 1.763M505.71 365.334a2.357 2.357 0 0 1-1.71.732h-5.642v9.726c0 .776-.338 1.5-.835 2.046-.606.565-1.322.839-2.087.895h-5.69c-.728-.056-1.504-.33-2.043-.895a2.826 2.826 0 0 1-.843-2.046V363.284l-.043-6.61a6.325 6.325 0 0 0-3.045-3.277c-1.383-.668-2.988-.84-4.43-.396v20.844c0 1.214-.305 2.606-1.936 3.028l-20.82-.028H442.89a2.433 2.433 0 0 1-1.714-.72c-.504-.513-.767-1.119-.767-1.777l.001-1.893c0-.672.262-1.282.766-1.792.447-.433 1.051-.654 1.714-.654h24.964v-17.227h-7.405v9.557c0 .782-.324 1.499-.826 2.061-.567.564-1.326.838-2.099.838h-5.684c-.778 0-1.496-.274-1.995-.838-.603-.562-.88-1.279-.88-2.061v-9.557h-10.174c-.71 0-1.314-.225-1.762-.72-.443-.452-.775-1.065-.775-1.733v-1.888c0-.667.332-1.275.775-1.777.448-.451 1.051-.672 1.762-.672h37.692c.49 0 .992.061 1.435.169 3.152.279 6.232 1.228 8.942 2.843V344.048c0-.777.287-1.496.843-2.055.54-.559 1.315-.901 2.043-.901h5.69c.765 0 1.481.342 2.087.901.497.559.835 1.278.835 2.055v15.18H504c.658 0 1.264.286 1.71.726.437.438.776 1.11.776 1.776v1.845c0 .722-.339 1.265-.777 1.759M498.692 327.801c0 3.979-2.294 7.306-6.88 9.983v-.015l-.025.02v.012c.012-.002.02-.006.026-.017v.01c-5.17 2.985-12.293 4.477-21.356 4.477h-.147c-9.108 0-16.24-1.492-21.405-4.47-4.702-2.675-7.044-6.005-7.044-10 0-.048.004-.097.004-.154 0-.045-.004-.098-.004-.15 0-3.962 2.341-7.252 7.044-9.846 5.166-2.927 12.297-4.387 21.405-4.387 1.188 0 2.33.025 3.435.072.365.007.704.047 1.051.07.693.032 1.39.072 2.05.13.694.066 1.363.154 2.028.24.307.031.617.06.912.103.527.077 1.012.174 1.519.267.424.073.86.134 1.279.22.167.035.314.086.493.111 3.347.739 6.266 1.789 8.71 3.174.04.027.073.05.129.08 4.511 2.586 6.776 5.837 6.776 9.765 0 .053-.006.106-.006.151 0 .058.006.106.006.154m-28.346 7.506c7.541 0 13.937-2.168 16.352-5.201.063-.076.134-.153.189-.23.03-.042.06-.078.087-.119.467-.685.722-1.416.742-2.161-.01-.207-.02-.42-.071-.628a4.682 4.682 0 0 0-.677-1.572c-.016-.021-.03-.042-.048-.062a5.752 5.752 0 0 0-.377-.477c-2.524-3.025-8.816-5.17-16.197-5.17-9.484 0-17.183 3.54-17.365 7.932.182 4.256 7.88 7.688 17.365 7.688M424.537 322.07c-.494.444-1.102.73-1.76.73h-42.426V335.74c0 .775-.272 1.491-.828 2.107-.553.502-1.267.83-2.049.83h-5.689c-.769 0-1.486-.328-2.035-.83-.555-.616-.896-1.332-.896-2.107v-17.23c0-.663.341-1.333.781-1.769.501-.509 1.105-.788 1.768-.788h51.374c.658 0 1.325.28 1.76.733.445.491.723 1.106.723 1.776v1.825c0 .666-.278 1.341-.723 1.782"/><path fill="#ed1c24" d="M360.095 299.071v3.113h-22.337V278.665h8.463v.011h13.874v2.926h-13.874v10.94h13.874v2.932h-13.874v3.597zM266.74 303.572c-8.772 0-15.884-5.918-15.884-13.222 0-7.302 7.112-13.224 15.883-13.224 8.766 0 15.875 5.922 15.875 13.224 0 7.304-7.11 13.222-15.875 13.222m0-23.854c-4.512 0-8.164 4.761-8.164 10.632 0 5.87 3.652 10.637 8.164 10.637 4.508 0 8.158-4.767 8.158-10.637s-3.65-10.632-8.158-10.632M307.134 302.175h-26.367v-2.932h9.155v-20.588h8.464v20.588h8.748zM410.603 303.581c-8.784 0-15.904-5.92-15.904-13.219 0-7.307 7.12-13.226 15.904-13.226 8.776 0 15.895 5.919 15.895 13.226.001 7.299-7.12 13.219-15.895 13.219m0-23.852c-4.522 0-8.178 4.762-8.178 10.633 0 5.869 3.656 10.628 8.178 10.628 4.516 0 8.165-4.759 8.165-10.628 0-5.871-3.649-10.633-8.165-10.633M396.095 302.18h-26.362v-2.93h9.15V278.66h8.464v20.591h8.748zM335.818 302.175h-26.362v-2.932h9.156v-20.588h8.461v20.588h8.745ZM240.186 281.79v20.462h-8.467V278.86h20.469v2.93zM484.824 289.689c1.432.503 3.482 1.57 3.482 1.57 3.998 2.151 2.355 6.062 2.355 6.062-2.519 5.758-13.438 4.881-13.438 4.881h-15.131v-23.19l8.368-.091v9.604h4.362c2.566-.131 3.933-1.079 3.933-1.079 2.153-.999 2.632-5.628 2.632-5.628l.18-2.805h9.543l-.523 3.099c-.904 6.012-5.763 7.577-5.763 7.577m-2.038 5.735s-.028-3.745-6.728-4.101h-5.598l-.014 8.112 6.873-.012s5.732 0 5.467-3.999M451.59 302.365l.02-12.694c-.304-4.899-3.221-8.007-7.25-8.007-4.148 0-7.517 3.354-7.652 8.453v12.235l-7.486.013v-12.257h.014c.29-6.322 6.844-11.376 14.9-11.376 8.036 0 14.59 5.054 14.887 11.376h.015v12.257z"/></g></svg>